# xmcd
#
# Track frame offsets:
#	150
#	19145
#	34327
#	46025
#	58197
#	72045
#	86877
#	98705
#	110510
#	123247
#
# Disc length: 1793 seconds
#
# Revision: 0
# Processed by: cddbd v1.4PL0 Copyright (c) Steve Scherf et al.
# Submitted via: dBpowerAMP V4.0
#
DISCID=8106ff0a
DTITLE=Merle Haggard - The Epic Collection (recorded live)
DYEAR=1900
DGENRE=Country
TTITLE0=Medley: Honky Tonk Night Time Man/Old Man From The Mountain
TTITLE1=Holding Things Together
TTITLE2=Sing A Sad Song
TTITLE3=Every Fool Has A Rainbow
TTITLE4=Blue Yodel # 2
TTITLE5=Trouble In Mind
TTITLE6=Things Aren't Funny Anymore
TTITLE7=(My Friends Are Gonna Be) Strangers
TTITLE8=I Always Get Lucky With You
TTITLE9=Workin' Man Blues
EXTD=
EXTT0=
EXTT1=
EXTT2=
EXTT3=
EXTT4=
EXTT5=
EXTT6=
EXTT7=
EXTT8=
EXTT9=
PLAYORDER=
